<?xml version="1.0" encoding="utf-8"?>
<svg xmlns="http://www.w3.org/2000/svg">
    <defs>
        <symbol id="icon-download" viewBox="0 0 16 18">
            <path stroke="currentColor" stroke-linecap="round" stroke-linejoin="round" stroke-width="2"
                  d="M8 1v11m0 0 4-4m-4 4L4 8m11 4v3a2 2 0 0 1-2 2H3a2 2 0 0 1-2-2v-3"/>
        </symbol>
        <symbol id="icon-phone" viewBox="0 0 19 18">
            <path d="M18 13.446a3.02 3.02 0 0 0-.946-1.985l-1.4-1.4a3.054 3.054 0 0 0-4.218 0l-.7.7a.983.983 0 0 1-1.39 0l-2.1-2.1a.983.983 0 0 1 0-1.389l.7-.7a2.98 2.98 0 0 0 0-4.217l-1.4-1.4a2.824 2.824 0 0 0-4.218 0c-3.619 3.619-3 8.229 1.752 12.979C6.785 16.639 9.45 18 11.912 18a7.175 7.175 0 0 0 5.139-2.325A2.9 2.9 0 0 0 18 13.446Z"/>>
        </symbol>
        <symbol id="icon-email" viewBox="0 0 20 16">
            <path d="m10.036 8.278 9.258-7.79A1.979 1.979 0 0 0 18 0H2A1.987 1.987 0 0 0 .641.541l9.395 7.737Z"/>
            <path d="M11.241 9.817c-.36.275-.801.425-1.255.427-.428 0-.845-.138-1.187-.395L0 2.6V14a2 2 0 0 0 2 2h16a2 2 0 0 0 2-2V2.5l-8.759 7.317Z"/>
        </symbol>
        <symbol id="icon-linkedin" viewBox="0 0 15 15">
            <path fill-rule="evenodd" d="M7.979 5v1.586a3.5 3.5 0 0 1 3.082-1.574C14.3 5.012 15 7.03 15 9.655V15h-3v-4.738c0-1.13-.229-2.584-1.995-2.584-1.713 0-2.005 1.23-2.005 2.5V15H5.009V5h2.97ZM3 2.487a1.5 1.5 0 1 1-3 0 1.5 1.5 0 0 1 3 0Z" clip-rule="evenodd"/>
            <path d="M3 5.012H0V15h3V5.012Z"/>
        </symbol>
    </defs>
</svg>
